<?xml version="1.0" standalone="no"?>
<!DOCTYPE svg PUBLIC "-//W3C//DTD SVG 20010904//EN"
 "http://www.w3.org/TR/2001/REC-SVG-20010904/DTD/svg10.dtd">
<svg version="1.0" xmlns="http://www.w3.org/2000/svg"
 width="128.000000pt" height="128.000000pt" viewBox="0 0 128.000000 128.000000"
 preserveAspectRatio="xMidYMid meet">

<g transform="translate(0.000000,128.000000) scale(0.100000,-0.100000)"
fill="#000000" stroke="none">
<path d="M360 1116 c-187 -63 -275 -97 -275 -107 0 -8 6 -72 14 -143 9 -86 11
-131 4 -133 -6 -2 -19 -10 -29 -18 -17 -13 -14 -14 35 -15 53 0 53 0 48 28
-15 74 -29 264 -21 271 5 5 120 45 256 89 l248 79 255 -81 255 -81 -1 -40 c0
-22 -6 -87 -13 -145 -7 -58 -11 -108 -9 -112 2 -5 28 -8 56 -7 l52 0 -32 16
c-38 19 -38 17 -18 177 8 66 12 122 10 126 -4 6 -347 122 -547 184 -7 3 -137
-37 -288 -88z"/>
<path d="M395 1066 c-121 -39 -226 -74 -233 -77 -11 -4 -11 -28 2 -141 9 -76
16 -140 16 -143 0 -3 207 -5 459 -5 l459 0 6 38 c12 81 28 243 24 247 -10 10
-474 155 -493 154 -11 -1 -119 -33 -240 -73z m261 43 c10 -17 -13 -36 -27 -22
-12 12 -4 33 11 33 5 0 12 -5 16 -11z m-367 -187 c6 -21 14 -53 17 -70 10 -51
20 -46 34 16 17 76 26 92 55 92 25 0 25 0 25 -105 0 -98 -1 -105 -20 -105 -17
0 -20 7 -21 53 l-1 52 -16 -52 c-13 -48 -18 -53 -43 -53 -25 0 -29 5 -35 38
-11 64 -23 72 -24 15 0 -46 -3 -53 -20 -53 -19 0 -20 7 -20 105 l0 105 30 0
c25 0 31 -5 39 -38z m275 32 c12 -4 16 -20 16 -55 0 -38 -4 -51 -22 -63 -12
-9 -30 -16 -40 -16 -14 0 -18 -8 -18 -35 0 -31 -3 -35 -25 -35 -25 0 -25 0
-25 98 0 54 3 102 7 105 8 9 86 9 107 1z m86 -78 l0 -85 33 -3 c20 -2 32 -8
32 -18 0 -11 -14 -16 -52 -18 l-53 -3 0 105 c0 99 1 106 20 106 18 0 20 -7 20
-84z m186 73 c6 -10 44 -174 44 -191 0 -4 -11 -8 -25 -8 -18 0 -25 5 -25 20 0
13 -7 20 -19 20 -10 0 -21 -9 -24 -20 -7 -25 -47 -28 -47 -2 0 15 7 46 35 170
6 24 48 32 61 11z m174 1 c10 -6 15 -31 16 -87 3 -97 -8 -113 -78 -113 l-48 0
0 98 c0 54 3 102 7 105 10 10 86 8 103 -3z m60 -15 c0 -8 -7 -15 -15 -15 -8 0
-15 7 -15 15 0 8 7 15 15 15 8 0 15 -7 15 -15z"/>
<path d="M507 914 c-4 -4 -7 -18 -7 -31 0 -18 5 -24 18 -21 10 2 17 12 17 27
0 24 -15 37 -28 25z"/>
<path d="M801 858 c-1 -16 4 -28 9 -28 12 0 12 8 0 35 -8 18 -9 17 -9 -7z"/>
<path d="M950 895 c0 -17 5 -25 13 -22 6 2 12 12 12 22 0 10 -6 20 -12 23 -8
2 -13 -6 -13 -23z"/>
<path d="M950 810 c0 -11 7 -20 15 -20 8 0 15 9 15 20 0 11 -7 20 -15 20 -8 0
-15 -9 -15 -20z"/>
<path d="M342 683 c164 -2 432 -2 595 0 164 1 30 2 -297 2 -327 0 -461 -1
-298 -2z"/>
<path d="M70 644 c0 -5 23 -32 50 -59 l50 -49 -50 -51 c-27 -28 -50 -54 -50
-58 0 -4 17 -7 38 -7 30 0 45 7 72 35 l34 35 38 -37 c21 -20 38 -33 38 -27 0
5 -49 59 -110 119 -60 60 -110 105 -110 99z"/>
<path d="M110 642 c0 -16 216 -222 233 -222 26 0 21 10 -33 65 l-50 51 50 49
c27 27 50 53 50 57 0 4 -17 8 -38 8 -30 0 -45 -7 -72 -35 l-34 -35 -36 35
c-33 32 -70 46 -70 27z"/>
<path d="M520 535 l0 -116 28 3 27 3 0 110 0 110 -27 3 -28 3 0 -116z"/>
<path d="M645 638 c-3 -8 -4 -59 -3 -114 l3 -99 112 0 c110 0 113 1 140 28 24
23 28 36 28 82 0 46 -4 59 -28 82 -26 27 -33 28 -137 31 -88 3 -111 1 -115
-10z m219 -60 c9 -12 16 -32 16 -43 0 -11 -7 -31 -16 -43 -13 -19 -24 -22 -90
-22 l-74 0 0 65 0 65 74 0 c66 0 77 -3 90 -22z"/>
<path d="M984 637 c-2 -7 -3 -58 -2 -113 l3 -99 115 0 c112 0 115 1 118 23 3
21 1 22 -87 22 -84 0 -91 1 -91 20 0 17 7 20 50 20 47 0 50 2 50 25 0 23 -3
25 -50 25 -43 0 -50 3 -50 20 0 19 7 20 91 20 88 0 90 1 87 23 -3 21 -7 22
-116 25 -87 2 -114 0 -118 -11z"/>
<path d="M362 383 c153 -2 403 -2 555 0 153 1 28 2 -277 2 -305 0 -430 -1
-278 -2z"/>
<path d="M126 346 c24 -11 33 -22 38 -49 l6 -34 229 -87 c125 -47 234 -86 242
-86 24 0 463 170 471 183 4 7 8 22 8 34 0 16 10 27 33 37 l32 14 -52 1 -53 1
0 -34 0 -34 -137 -52 c-76 -29 -175 -66 -220 -82 l-83 -31 -207 78 c-115 43
-214 82 -220 88 -7 5 -13 22 -13 38 0 28 -1 29 -52 29 l-53 -1 31 -13z"/>
<path d="M222 333 c3 -26 15 -32 211 -106 l209 -78 206 79 c194 73 207 80 210
105 l3 27 -421 0 -421 0 3 -27z m48 -8 c0 -8 -7 -15 -15 -15 -8 0 -15 7 -15
15 0 8 7 15 15 15 8 0 15 -7 15 -15z m770 0 c0 -8 -6 -15 -14 -15 -17 0 -28
14 -19 24 12 12 33 6 33 -9z m-380 -130 c0 -8 -6 -15 -14 -15 -17 0 -28 14
-19 24 12 12 33 6 33 -9z"/>
</g>
</svg>
